# xmcd
#
# Track frame offsets:
#  150
#  30637
#  45507
#  61241
#  74143
#  83821
#  105271
#  118876
#  129611
#  144429
#  157186
#  173138
#  192277
#  210485
#  225605
#  237506
#  248731
#  264265
#  277085
#  286179
#
# Disc length: 4016 seconds
#
# Revision: 0
# Processed by: cddbd v1.5.1PL2 Copyright (c) Steve Scherf et al.
# Submitted via: Collectorz.com Music Collector 6.9
#
DISCID=240fae14
DTITLE=Johnny Cash - Heroes and Friends  CD 1
DYEAR=1900
DGENRE=Country
TTITLE0=The good, the bad and the two cookie kid
TTITLE1=Amazing graze
TTITLE2=I shall be free
TTITLE3=Silver haired daddy of mine
TTITLE4=What´s good for you
TTITLE5=Forever young
TTITLE6=The death of me
TTITLE7=The human condition
TTITLE8=Battle of Nashville
TTITLE9=Get rhythm
TTITLE10=Crazy old soldier
TTITLE11=Suffer little children
TTITLE12=Give me back my job
TTITLE13=The love that never failed
TTITLE14=Love me tender
TTITLE15=Didn´t it rain
TTITLE16=I still miss someone
TTITLE17=Better class of losers
TTITLE18=Jealous loving heart
TTITLE19=Doin´ my time
EXTD=
EXTT0=
EXTT1=
EXTT2=
EXTT3=
EXTT4=
EXTT5=
EXTT6=
EXTT7=
EXTT8=
EXTT9=
EXTT10=
EXTT11=
EXTT12=
EXTT13=
EXTT14=
EXTT15=
EXTT16=
EXTT17=
EXTT18=
EXTT19=
PLAYORDER=
